<?xml version="1.0" encoding="UTF-8"?>
<svg id="Capa_2" data-name="Capa 2" xmlns="http://www.w3.org/2000/svg" viewBox="0 0 148.09 148.32">
  <g id="Capa_1-2" data-name="Capa 1">
    <path d="m95.45,68.53h8.96c2.03,0,4.03-.54,5.79-1.55l29.87-17.24h0l8.02-4.63-11.57-20.05-4.01,2.31h0s-34.15,19.72-34.15,19.72c-1.76,1.02-3.22,2.48-4.24,4.24l-4.32,7.48c-1.6,2.77-5.14,3.72-7.9,2.12-2.77-1.6-3.72-5.14-2.12-7.9l4.41-7.63c1.02-1.76,1.55-3.76,1.55-5.79V0h-23.15v39.6c0,2.03.53,4.03,1.55,5.79l4.43,7.68c1.6,2.77.65,6.31-2.12,7.9s-6.31.65-7.9-2.12l-4.39-7.6c-1.02-1.76-2.48-3.22-4.24-4.24L15.58,27.19h0s-.05-.03-.05-.03h0s-3.96-2.28-3.96-2.28L0,44.92l8.02,4.63h0s30.19,17.43,30.19,17.43c1.76,1.02,3.76,1.55,5.79,1.55h8.96c3.2,0,5.79,2.59,5.79,5.79s-2.59,5.79-5.79,5.79h-8.68c-2.03,0-4.03.53-5.79,1.55L4.06,101.53h0S.05,103.85.05,103.85l11.57,20.05,8.02-4.63h0s30.14-17.4,30.14-17.4c1.76-1.02,3.22-2.48,4.24-4.24l4.5-7.8c1.6-2.77,5.14-3.72,7.9-2.12,2.77,1.6,3.72,5.14,2.12,7.9l-4.41,7.64c-1.02,1.76-1.55,3.76-1.55,5.79v39.28h23.15v-39.28c0-2.03-.53-4.03-1.55-5.79l-4.39-7.6c-1.6-2.77-.65-6.31,2.12-7.9,2.77-1.6,6.31-.65,7.9,2.12l4.43,7.68c1.02,1.76,2.48,3.22,4.24,4.24l29.96,17.3h0s8.02,4.63,8.02,4.63l11.57-20.05-4.01-2.31h0s-34.11-19.69-34.11-19.69c-1.76-1.02-3.76-1.55-5.79-1.55h-8.68c-3.2,0-5.79-2.59-5.79-5.79s2.59-5.79,5.79-5.79Z"/>
  </g>
</svg>